<svg xmlns="http://www.w3.org/2000/svg" xmlns:xlink="http://www.w3.org/1999/xlink" width="500" zoomAndPan="magnify" viewBox="0 0 375 374.999991" height="500" preserveAspectRatio="xMidYMid meet" version="1.0"><defs><clipPath id="c64968090e"><path d="M 187 7.335938 L 354 7.335938 L 354 174 L 187 174 Z M 187 7.335938 " clip-rule="nonzero"/></clipPath><clipPath id="8e8dee5e84"><path d="M 34 311 L 294 311 L 294 372.585938 L 34 372.585938 Z M 34 311 " clip-rule="nonzero"/></clipPath><clipPath id="f2db7a72c9"><path d="M 187 3.746094 L 354 3.746094 L 354 170 L 187 170 Z M 187 3.746094 " clip-rule="nonzero"/></clipPath><clipPath id="0d8f39be45"><path d="M 34 308 L 294 308 L 294 368.996094 L 34 368.996094 Z M 34 308 " clip-rule="nonzero"/></clipPath></defs><path fill="#ffffff" d="M 339.308594 91.0625 C 348.585938 100.347656 348.585938 115.386719 339.308594 124.671875 L 298.367188 165.621094 L 298.359375 165.621094 L 195.601562 62.859375 L 236.546875 21.910156 C 245.824219 12.625 260.867188 12.625 270.144531 21.910156 Z M 339.308594 91.0625 " fill-opacity="1" fill-rule="nonzero"/><path fill="#ffffff" d="M 177.605469 286.367188 L 144.621094 319.359375 L 95.09375 319.359375 L 33.890625 258.164062 C 24.613281 248.878906 24.613281 233.84375 33.890625 224.558594 L 74.839844 183.605469 Z M 177.605469 286.367188 " fill-opacity="1" fill-rule="nonzero"/><path fill="#ffffff" d="M 132.601562 104.851562 L 158.859375 78.605469 L 282.601562 202.382812 L 256.34375 228.628906 Z M 132.601562 104.851562 " fill-opacity="1" fill-rule="nonzero"/><path fill="#5e17eb" d="M 308.859375 176.117188 L 282.613281 202.375 L 158.851562 78.613281 L 185.101562 52.359375 L 195.59375 62.859375 L 298.359375 165.621094 L 298.367188 165.621094 Z M 308.859375 176.117188 " fill-opacity="1" fill-rule="nonzero"/><path fill="#5e17eb" d="M 132.597656 104.863281 L 256.355469 228.621094 L 188.105469 296.871094 C 184.53125 293.296875 67.363281 176.125 64.347656 173.113281 Z M 132.597656 104.863281 " fill-opacity="1" fill-rule="nonzero"/><path fill="#6c5ce7" d="M 298.359375 173.234375 C 296.410156 173.234375 294.464844 172.488281 292.976562 171.003906 L 190.214844 68.242188 C 187.242188 65.269531 187.242188 60.449219 190.214844 57.476562 C 193.1875 54.507812 198.003906 54.507812 200.976562 57.476562 L 303.742188 160.242188 C 306.710938 163.210938 306.710938 168.03125 303.742188 171.003906 C 302.253906 172.492188 300.304688 173.234375 298.359375 173.234375 Z M 298.359375 173.234375 " fill-opacity="1" fill-rule="nonzero"/><g clip-path="url(#c64968090e)"><path fill="#6c5ce7" d="M 298.367188 173.234375 C 296.417969 173.234375 294.46875 172.492188 292.984375 171.003906 C 290.011719 168.03125 290.011719 163.214844 292.984375 160.242188 L 333.925781 119.289062 C 340.21875 112.992188 340.21875 102.742188 333.925781 96.441406 L 264.765625 27.289062 C 261.714844 24.238281 257.660156 22.554688 253.347656 22.554688 C 249.035156 22.554688 244.980469 24.238281 241.929688 27.289062 L 200.984375 68.242188 C 198.011719 71.214844 193.195312 71.214844 190.222656 68.242188 C 187.25 65.269531 187.25 60.453125 190.21875 57.480469 L 231.164062 16.527344 C 237.085938 10.601562 244.964844 7.335938 253.347656 7.335938 C 261.726562 7.335938 269.605469 10.601562 275.53125 16.53125 L 344.691406 85.683594 C 356.914062 97.917969 356.914062 117.820312 344.691406 130.050781 L 303.746094 171.003906 C 302.261719 172.492188 300.3125 173.234375 298.367188 173.234375 Z M 298.367188 173.234375 " fill-opacity="1" fill-rule="nonzero"/></g><path fill="#6c5ce7" d="M 188.105469 304.480469 C 186.160156 304.480469 184.210938 303.738281 182.726562 302.253906 L 172.222656 291.75 C 169.25 288.777344 169.25 283.960938 172.222656 280.988281 C 175.195312 278.015625 180.015625 278.015625 182.984375 280.988281 L 188.105469 286.109375 L 298.097656 176.117188 L 293.179688 171.199219 C 293.113281 171.136719 293.042969 171.070312 292.976562 171.003906 L 190.417969 68.4375 C 190.347656 68.371094 190.28125 68.308594 190.210938 68.238281 L 185.101562 63.121094 L 75.109375 173.113281 L 80.222656 178.226562 C 83.195312 181.195312 83.195312 186.015625 80.222656 188.988281 C 77.25 191.960938 72.433594 191.960938 69.460938 188.988281 L 58.964844 178.492188 C 55.992188 175.523438 55.992188 170.703125 58.964844 167.730469 L 179.71875 46.976562 C 181.144531 45.550781 183.082031 44.746094 185.101562 44.746094 C 187.121094 44.746094 189.054688 45.550781 190.484375 46.980469 L 200.78125 57.285156 C 200.851562 57.347656 200.917969 57.414062 200.984375 57.480469 L 303.542969 160.046875 C 303.613281 160.109375 303.679688 160.175781 303.746094 160.242188 L 314.242188 170.734375 C 317.214844 173.707031 317.214844 178.527344 314.242188 181.5 L 193.488281 302.253906 C 192.003906 303.738281 190.054688 304.480469 188.105469 304.480469 Z M 188.105469 304.480469 " fill-opacity="1" fill-rule="nonzero"/><path fill="#6c5ce7" d="M 282.613281 209.984375 C 280.664062 209.984375 278.71875 209.238281 277.230469 207.753906 L 153.472656 83.996094 C 150.5 81.023438 150.496094 76.199219 153.46875 73.230469 C 156.4375 70.257812 161.253906 70.253906 164.226562 73.226562 L 287.992188 196.992188 C 290.964844 199.964844 290.964844 204.78125 287.992188 207.753906 C 286.507812 209.242188 284.558594 209.984375 282.613281 209.984375 Z M 282.613281 209.984375 " fill-opacity="1" fill-rule="nonzero"/><path fill="#6c5ce7" d="M 256.355469 236.234375 C 254.40625 236.234375 252.460938 235.488281 250.976562 234.003906 L 127.214844 110.242188 C 125.789062 108.816406 124.984375 106.878906 124.984375 104.863281 C 124.984375 100.660156 128.394531 97.25 132.597656 97.25 C 134.792969 97.25 136.769531 98.175781 138.160156 99.664062 L 261.738281 223.242188 C 264.710938 226.210938 264.710938 231.03125 261.738281 234.003906 C 260.25 235.488281 258.304688 236.234375 256.355469 236.234375 Z M 256.355469 236.234375 " fill-opacity="1" fill-rule="nonzero"/><path fill="#6c5ce7" d="M 144.621094 326.96875 C 142.671875 326.96875 140.726562 326.226562 139.242188 324.742188 C 136.269531 321.769531 136.269531 316.949219 139.238281 313.976562 L 166.84375 286.371094 L 74.84375 194.371094 L 39.273438 229.9375 C 32.980469 236.234375 32.980469 246.484375 39.273438 252.785156 L 100.476562 313.976562 C 103.445312 316.949219 103.449219 321.769531 100.476562 324.742188 C 97.503906 327.714844 92.683594 327.714844 89.710938 324.742188 L 28.511719 263.546875 C 16.285156 251.3125 16.285156 231.410156 28.507812 219.179688 L 69.460938 178.226562 C 72.433594 175.253906 77.25 175.253906 80.222656 178.226562 L 182.988281 280.988281 C 185.957031 283.960938 185.957031 288.777344 182.988281 291.75 L 150.003906 324.742188 C 148.515625 326.226562 146.570312 326.96875 144.621094 326.96875 Z M 144.621094 326.96875 " fill-opacity="1" fill-rule="nonzero"/><g clip-path="url(#8e8dee5e84)"><path fill="#6c5ce7" d="M 262.855469 372.632812 L 194.363281 372.632812 C 190.160156 372.632812 186.75 369.222656 186.75 365.023438 C 186.75 360.820312 190.160156 357.410156 194.363281 357.410156 L 262.855469 357.410156 C 266.917969 357.410156 270.738281 355.828125 273.617188 352.949219 C 276.492188 350.074219 278.074219 346.253906 278.074219 342.191406 C 278.074219 333.796875 271.25 326.96875 262.855469 326.96875 L 42.15625 326.96875 C 37.953125 326.96875 34.542969 323.5625 34.542969 319.359375 C 34.542969 315.15625 37.953125 311.75 42.15625 311.75 L 262.855469 311.75 C 279.640625 311.75 293.296875 325.40625 293.296875 342.191406 C 293.296875 350.320312 290.128906 357.960938 284.378906 363.714844 C 278.628906 369.464844 270.984375 372.632812 262.855469 372.632812 Z M 262.855469 372.632812 " fill-opacity="1" fill-rule="nonzero"/></g><path fill="#ffffff" d="M 339.308594 87.472656 C 348.585938 96.757812 348.585938 111.796875 339.308594 121.082031 L 298.367188 162.03125 L 298.359375 162.03125 L 195.601562 59.269531 L 236.546875 18.320312 C 245.824219 9.035156 260.867188 9.035156 270.144531 18.320312 Z M 339.308594 87.472656 " fill-opacity="1" fill-rule="nonzero"/><path fill="#ffffff" d="M 177.605469 282.777344 L 144.621094 315.769531 L 95.09375 315.769531 L 33.890625 254.574219 C 24.613281 245.289062 24.613281 230.25 33.890625 220.96875 L 74.839844 180.015625 Z M 177.605469 282.777344 " fill-opacity="1" fill-rule="nonzero"/><path fill="#ffffff" d="M 132.601562 101.261719 L 158.859375 75.015625 L 282.601562 198.789062 L 256.34375 225.039062 Z M 132.601562 101.261719 " fill-opacity="1" fill-rule="nonzero"/><path fill="#5e17eb" d="M 308.859375 172.527344 L 282.613281 198.78125 L 158.851562 75.023438 L 185.101562 48.769531 L 195.59375 59.269531 L 298.359375 162.03125 L 298.367188 162.03125 Z M 308.859375 172.527344 " fill-opacity="1" fill-rule="nonzero"/><path fill="#5e17eb" d="M 132.597656 101.273438 L 256.355469 225.03125 L 188.105469 293.28125 C 184.53125 289.707031 67.363281 172.535156 64.347656 169.519531 Z M 132.597656 101.273438 " fill-opacity="1" fill-rule="nonzero"/><path fill="#6c5ce7" d="M 298.359375 169.644531 C 296.410156 169.644531 294.464844 168.898438 292.976562 167.414062 L 190.214844 64.652344 C 187.242188 61.679688 187.242188 56.859375 190.214844 53.886719 C 193.1875 50.917969 198.003906 50.917969 200.976562 53.886719 L 303.742188 156.652344 C 306.710938 159.621094 306.710938 164.441406 303.742188 167.414062 C 302.253906 168.898438 300.304688 169.644531 298.359375 169.644531 Z M 298.359375 169.644531 " fill-opacity="1" fill-rule="nonzero"/><g clip-path="url(#f2db7a72c9)"><path fill="#6c5ce7" d="M 298.367188 169.644531 C 296.417969 169.644531 294.46875 168.898438 292.984375 167.414062 C 290.011719 164.441406 290.011719 159.625 292.984375 156.652344 L 333.925781 115.699219 C 340.21875 109.402344 340.21875 99.152344 333.925781 92.851562 L 264.765625 23.699219 C 261.714844 20.648438 257.660156 18.964844 253.347656 18.964844 C 249.035156 18.964844 244.980469 20.648438 241.929688 23.699219 L 200.984375 64.652344 C 198.011719 67.625 193.195312 67.625 190.222656 64.652344 C 187.25 61.679688 187.25 56.859375 190.21875 53.890625 L 231.164062 12.9375 C 237.085938 7.011719 244.964844 3.746094 253.347656 3.746094 C 261.726562 3.746094 269.605469 7.011719 275.53125 12.941406 L 344.691406 82.09375 C 356.914062 94.328125 356.914062 114.230469 344.691406 126.460938 L 303.746094 167.414062 C 302.261719 168.898438 300.3125 169.644531 298.367188 169.644531 Z M 298.367188 169.644531 " fill-opacity="1" fill-rule="nonzero"/></g><path fill="#6c5ce7" d="M 188.105469 300.890625 C 186.160156 300.890625 184.210938 300.148438 182.726562 298.660156 L 172.222656 288.160156 C 169.25 285.1875 169.25 280.367188 172.222656 277.394531 C 175.195312 274.425781 180.015625 274.425781 182.984375 277.394531 L 188.105469 282.515625 L 298.097656 172.527344 L 293.179688 167.609375 C 293.113281 167.546875 293.042969 167.480469 292.976562 167.414062 L 190.417969 64.847656 C 190.347656 64.78125 190.28125 64.714844 190.210938 64.648438 L 185.101562 59.53125 L 75.109375 169.519531 L 80.222656 174.632812 C 83.195312 177.605469 83.195312 182.425781 80.222656 185.398438 C 77.25 188.367188 72.433594 188.367188 69.460938 185.398438 L 58.964844 174.902344 C 55.992188 171.929688 55.992188 167.113281 58.964844 164.140625 L 179.71875 43.386719 C 181.144531 41.960938 183.082031 41.15625 185.101562 41.15625 C 187.121094 41.15625 189.054688 41.960938 190.484375 43.390625 L 200.78125 53.695312 C 200.851562 53.757812 200.917969 53.824219 200.984375 53.890625 L 303.542969 156.457031 C 303.613281 156.519531 303.679688 156.585938 303.746094 156.652344 L 314.242188 167.144531 C 317.214844 170.117188 317.214844 174.9375 314.242188 177.910156 L 193.488281 298.660156 C 192.003906 300.148438 190.054688 300.890625 188.105469 300.890625 Z M 188.105469 300.890625 " fill-opacity="1" fill-rule="nonzero"/><path fill="#6c5ce7" d="M 282.613281 206.394531 C 280.664062 206.394531 278.71875 205.648438 277.230469 204.164062 L 153.472656 80.40625 C 150.5 77.433594 150.496094 72.609375 153.46875 69.636719 C 156.4375 66.667969 161.253906 66.664062 164.226562 69.632812 L 287.992188 193.402344 C 290.964844 196.375 290.964844 201.191406 287.992188 204.164062 C 286.507812 205.652344 284.558594 206.394531 282.613281 206.394531 Z M 282.613281 206.394531 " fill-opacity="1" fill-rule="nonzero"/><path fill="#6c5ce7" d="M 256.355469 232.640625 C 254.40625 232.640625 252.460938 231.898438 250.976562 230.414062 L 127.214844 106.652344 C 125.789062 105.226562 124.984375 103.289062 124.984375 101.273438 C 124.984375 97.070312 128.394531 93.65625 132.597656 93.65625 C 134.792969 93.65625 136.769531 94.585938 138.160156 96.070312 L 261.738281 219.652344 C 264.710938 222.621094 264.710938 227.441406 261.738281 230.414062 C 260.25 231.898438 258.304688 232.640625 256.355469 232.640625 Z M 256.355469 232.640625 " fill-opacity="1" fill-rule="nonzero"/><path fill="#6c5ce7" d="M 144.621094 323.378906 C 142.671875 323.378906 140.726562 322.636719 139.242188 321.152344 C 136.269531 318.179688 136.269531 313.359375 139.238281 310.386719 L 166.84375 282.777344 L 74.84375 190.777344 L 39.273438 226.347656 C 32.980469 232.644531 32.980469 242.894531 39.273438 249.195312 L 100.476562 310.386719 C 103.445312 313.359375 103.449219 318.179688 100.476562 321.152344 C 97.503906 324.125 92.683594 324.125 89.710938 321.152344 L 28.511719 259.957031 C 16.285156 247.722656 16.285156 227.820312 28.507812 215.589844 L 69.460938 174.632812 C 72.433594 171.664062 77.25 171.664062 80.222656 174.632812 L 182.988281 277.398438 C 185.957031 280.367188 185.957031 285.1875 182.988281 288.160156 L 150.003906 321.152344 C 148.515625 322.636719 146.570312 323.378906 144.621094 323.378906 Z M 144.621094 323.378906 " fill-opacity="1" fill-rule="nonzero"/><g clip-path="url(#0d8f39be45)"><path fill="#6c5ce7" d="M 262.855469 369.042969 L 194.363281 369.042969 C 190.160156 369.042969 186.75 365.632812 186.75 361.429688 C 186.75 357.230469 190.160156 353.820312 194.363281 353.820312 L 262.855469 353.820312 C 266.917969 353.820312 270.738281 352.238281 273.617188 349.359375 C 276.492188 346.484375 278.074219 342.664062 278.074219 338.601562 C 278.074219 330.207031 271.25 323.378906 262.855469 323.378906 L 42.15625 323.378906 C 37.953125 323.378906 34.542969 319.972656 34.542969 315.769531 C 34.542969 311.566406 37.953125 308.160156 42.15625 308.160156 L 262.855469 308.160156 C 279.640625 308.160156 293.296875 321.816406 293.296875 338.601562 C 293.296875 346.730469 290.128906 354.371094 284.378906 360.125 C 278.628906 365.875 270.984375 369.042969 262.855469 369.042969 Z M 262.855469 369.042969 " fill-opacity="1" fill-rule="nonzero"/></g></svg>